<svg xmlns="http://www.w3.org/2000/svg" xmlns:xlink="http://www.w3.org/1999/xlink" xmlns:inkscape="http://www.inkscape.org/namespaces/inkscape" version="1.1" width="595.2756" height="541.8898" viewBox="0 0 555.2756 541.8898">
<g inkscape:groupmode="layer" inkscape:label="Layer 1">
<path transform="matrix(1,0,0,-1,0,841.8898)" d="M116.7103 715.3381H442.6328V385.3899H116.7103Z" fill="#e5007d" fill-rule="evenodd"/>
<path transform="matrix(1,0,0,-1,0,841.8898)" d="M384.4599 626.9556C384.088 629.9269 383.7161 632.8981 383.3439 635.8703 385.5637 638.6876 387.7832 641.5053 390.0025 644.3223 397.4615 650.6637 408.3786 650.6889 407.8933 644.3237 392.455 615.3032 377.0155 586.2821 361.5772 557.261 373.1734 565.4733 384.7697 573.6855 396.366 581.8972 404.6511 589.8586 421.4534 582.9973 400.8813 574.2794 388.9417 567.3104 377.0014 560.3403 365.0618 553.3719 370.9885 546.2399 376.9157 539.1082 382.8421 531.9768 394.1586 523.2229 399.7528 541.7422 402.3867 544.824 402.5789 536.9856 396.8334 525.1272 389.1535 521.8722 381.5478 518.5647 371.3003 522.7858 359.5819 547.3746 356.6974 543.5929 353.8117 539.8106 350.9271 536.0289 349.9449 521.4277 341.8637 518.904 331.4735 520.3077 337.8433 532.4632 344.2133 544.6191 350.5836 556.7751 348.4244 564.2796 350.9328 568.8819 357.114 571.2001 363.9283 591.2626 372.9351 609.9174 384.4599 626.9556ZM392.4235 474.5701C392.4235 484.2763 392.4235 493.9821 392.4235 503.6882 394.594 503.9121 396.7648 504.1363 398.9353 504.3603 398.9353 494.6426 398.9353 484.9248 398.9353 475.2068 396.7648 474.9948 394.594 474.7825 392.4235 474.5701ZM381.9909 484.1229C381.9909 481.1272 381.9909 478.1319 381.9909 475.1362 379.7291 474.9123 377.4679 474.6881 375.2062 474.4641 375.2062 481.6874 375.2062 488.9112 375.2062 496.1344 377.318 496.4114 379.4301 496.6889 381.5419 496.9658 381.5419 495.7767 381.5419 494.5878 381.5419 493.3984 382.0646 494.4716 382.8489 495.309 383.906 495.9045 384.9287 496.5177 386.0254 496.8244 387.2075 496.8244 387.6619 496.8244 387.9916 496.8125 388.2073 496.7889 388.5143 496.7538 388.7246 496.7184 388.821 496.6889 388.1276 494.4345 387.4346 492.1798 386.7412 489.9251 386.7072 489.9603 386.5878 489.996 386.3891 490.0314 386.2752 490.055 386.0365 490.0666 385.6734 490.0666 385.2641 490.0666 384.798 489.996 384.2753 489.8546 383.349 489.5597 382.7409 489.0404 382.4399 488.3034 382.1272 487.5432 381.9566 486.517 381.9229 485.2256 381.9682 484.8834 381.9909 484.5118 381.9909 484.1229ZM366.2453 497.7445C364.7565 498.9314 363.2678 500.1191 361.7787 501.306 363.0838 502.7131 364.3889 504.1208 365.694 505.5279 367.2757 504.3563 368.8569 503.1848 370.4386 502.0135 369.0408 500.5902 367.6433 499.1675 366.2453 497.7445ZM362.8301 496.2229C364.9779 496.4941 367.126 496.7654 369.2738 497.0367 369.2738 489.8035 369.2738 482.5698 369.2738 475.3366 367.126 475.1753 364.9779 475.0143 362.8301 474.853 362.8301 481.9762 362.8301 489.0997 362.8301 496.2229ZM355.909 500.2271C354.5076 498.4126 353.1059 496.5987 351.7044 494.7843 349.852 496.7124 347.6809 497.6736 345.1924 497.6736 345.0827 497.6736 344.9724 497.6736 344.8627 497.6736 343.5727 497.6382 342.4022 497.2428 341.3509 496.4825 340.2374 495.6985 339.3621 494.6958 338.72 493.475 338.0666 492.2189 337.7373 490.9158 337.7373 489.5714 337.7373 487.1951 338.493 485.2077 340.0101 483.6155 341.5215 482.0176 343.4477 481.2214 345.7774 481.2214 346.4425 481.2214 347.2379 481.3333 348.1586 481.5519 349.1016 481.758 349.6133 481.8937 349.704 481.9649 349.704 483.3799 349.704 484.795 349.704 486.2103 347.3515 486.2103 344.9991 486.2103 342.6466 486.2103 343.313 488.1677 343.9803 490.1258 344.6467 492.0834 348.6852 492.0834 352.7232 492.0834 356.7614 492.0834 356.7614 487.1772 356.7614 482.271 356.7614 477.3651 356.6591 477.2591 356.0854 476.964 355.0286 476.4807 353.8919 475.9676 352.5001 475.5016 350.8577 475.1008 349.2153 474.6762 347.4539 474.4641 345.5787 474.4641 342.7716 474.4641 340.2204 475.1362 337.936 476.4864 335.6178 477.8308 333.8107 479.6592 332.5093 481.9586 331.2422 484.2527 330.6115 486.7174 330.6115 489.3531 330.6115 489.4002 330.6115 489.4478 330.6115 489.4948 330.6453 492.2189 331.2876 494.7075 332.5323 496.9602 333.7824 499.2126 335.5038 501.0049 337.703 502.338 339.8794 503.653 342.2889 504.3254 344.9254 504.3603 344.9934 504.3603 345.0617 504.3603 345.1297 504.3603 348.0619 504.3603 350.3801 503.8886 352.0964 502.9452 353.8809 501.9134 355.1533 501.0049 355.909 500.2271ZM312.2969 474.641C312.2969 478.8374 312.2969 483.0341 312.2969 487.2305 312.2969 489.9016 311.4788 491.2404 309.8421 491.2404 308.2283 491.2404 307.4216 489.9016 307.4216 487.2305 307.4216 483.2011 307.4216 479.1713 307.4216 475.1419 305.2738 474.9514 303.1257 474.7609 300.9779 474.5701 300.9779 481.7877 300.9779 489.0053 300.9779 496.2229 302.976 496.4706 304.9744 496.7184 306.9726 496.9658 306.9726 496.1619 306.9726 495.3577 306.9726 494.5538 306.9726 494.6014 307.1656 494.8373 307.5576 495.2616 307.8986 495.6335 308.444 496.0225 309.1944 496.4349 309.9047 496.8125 310.8481 497.0367 312.0301 497.1073 312.1475 497.1073 312.2649 497.1073 312.3822 497.1073 314.1096 497.1073 315.5757 496.4706 316.7745 495.1911 318.0419 493.8111 318.6726 492.1248 318.6726 490.1315 318.6726 485.1587 318.6726 480.1856 318.6726 475.2128 316.5474 475.022 314.422 474.8318 312.2969 474.641ZM291.295 484.1229C291.295 481.1272 291.295 478.1319 291.295 475.1362 289.0332 474.9123 286.772 474.6881 284.5103 474.4641 284.5103 481.6874 284.5103 488.9112 284.5103 496.1344 286.6221 496.4114 288.7342 496.6889 290.846 496.9658 290.846 495.7767 290.846 494.5878 290.846 493.3984 291.3687 494.4716 292.153 495.309 293.2101 495.9045 294.2328 496.5177 295.3295 496.8244 296.5116 496.8244 296.966 496.8244 297.2957 496.8125 297.5114 496.7889 297.8184 496.7538 298.0287 496.7184 298.1251 496.6889 297.4317 494.4345 296.7386 492.1798 296.0453 489.9251 296.011 489.9603 295.8919 489.996 295.6932 490.0314 295.5793 490.055 295.3406 490.0666 294.9772 490.0666 294.5682 490.0666 294.1021 489.996 293.5794 489.8546 292.6531 489.5597 292.045 489.0404 291.744 488.3034 291.4313 487.5432 291.2607 486.517 291.227 485.2256 291.2723 484.8834 291.295 484.5118 291.295 484.1229ZM280.5267 490.3557C276.1512 487.4995 271.7762 484.6439 267.4006 481.7877 267.571 481.5575 267.9857 481.2746 268.6507 480.9444 269.1961 480.6556 269.9861 480.5082 271.0145 480.5082 271.1605 480.5082 271.3062 480.5082 271.4522 480.5082 272.094 480.5668 272.8386 480.7675 273.6797 481.1156 274.39 481.4283 275.0151 481.7758 275.5488 482.171 276.0661 482.5721 276.3272 482.7841 276.3272 482.8076 277.4225 481.0742 278.517 479.3403 279.612 477.6069 279.146 477.2472 278.6233 476.8994 278.0436 476.5513 277.2879 476.0796 276.2878 475.596 275.0318 475.1008 273.833 474.6175 272.4919 474.3578 271.0145 474.3227 270.9706 474.3227 270.9275 474.3227 270.8838 474.3227 268.8267 474.3227 266.9516 474.806 265.2528 475.7729 263.4797 476.7163 262.076 478.0607 261.059 479.8003 260.0476 481.5045 259.5249 483.427 259.4908 485.5674 259.4908 485.6128 259.4908 485.6576 259.4908 485.7029 259.4908 487.5489 259.8942 489.2944 260.7069 490.9394 261.5533 492.5965 262.7237 493.9821 264.2187 495.0848 265.6959 496.158 267.378 496.8068 269.2704 497.0367 269.9121 497.0837 270.3781 497.1073 270.6678 497.1073 271.8896 497.1073 273.0716 496.8952 274.214 496.4706 275.7138 495.8456 276.8958 495.1026 277.7596 494.2417 278.5836 493.4336 279.2313 492.6436 279.7084 491.8771 280.0667 491.2991 280.3391 490.7923 280.5267 490.3557ZM265.5198 485.8506C268.0123 487.4683 270.5051 489.0858 272.9976 490.7038 272.776 490.8274 272.4866 490.9751 272.1339 491.1341 271.7308 491.2934 271.2022 491.3759 270.5315 491.3759 269.1337 491.3759 267.952 490.8214 266.9859 489.7191 266.0085 488.5866 265.5198 487.3014 265.5198 485.8506ZM251.212 490.1374C251.212 488.1328 251.212 486.1276 251.212 484.1229 251.212 483.1673 251.314 482.5015 251.5127 482.1355 251.6893 481.7523 252.0524 481.4283 252.6094 481.1508 252.8768 481.0209 253.4505 480.909 254.3428 480.803 254.9735 480.8616 255.4393 480.9209 255.7406 480.9801 256.036 481.0093 256.4053 481.0686 256.8373 481.1508 256.2106 478.9335 255.5833 476.7163 254.9565 474.499 254.7899 474.499 254.6232 474.499 254.4565 474.499 254.2915 474.4755 253.9902 474.4641 253.5585 474.4641 251.4163 474.4641 249.6662 474.9001 248.3135 475.7791 245.9047 477.2293 244.6999 479.482 244.6999 482.5366 244.6999 485.0702 244.6999 487.6036 244.6999 490.1374 243.5522 490.1374 242.4039 490.1374 241.2561 490.1374 241.7998 492.1189 242.3435 494.1 242.8872 496.0817 243.5576 496.0817 244.2283 496.0817 244.8986 496.0817 244.8986 497.4633 244.8986 498.8452 244.8986 500.2271 247.0031 501.1234 249.1075 502.0197 251.212 502.916 251.212 500.6378 251.212 498.3596 251.212 496.0817 252.5984 496.0817 253.9848 496.0817 255.3712 496.0817 255.3712 494.1 255.3712 492.1189 255.3712 490.1374 253.9848 490.1374 252.5984 490.1374 251.212 490.1374ZM237.8072 493.7051C236.4775 492.4687 235.148 491.2325 233.8183 489.996 233.8183 490.0666 233.7384 490.1845 233.585 490.3557 233.4943 490.4498 233.4033 490.5326 233.301 490.6091 233.1986 490.686 233.1023 490.7625 232.9999 490.8393 232.8579 490.9689 232.5626 491.1341 232.1189 491.3405 231.7326 491.5054 231.2779 491.5823 230.7552 491.5823 230.1364 491.5823 229.5794 491.4581 229.0904 491.2047 228.6077 490.9277 228.3403 490.5269 228.2947 489.996 228.2947 489.9725 228.2947 489.9489 228.2947 489.9251 228.2947 489.6363 228.5223 489.365 228.977 489.1116 229.4087 488.8814 230.0051 488.6929 230.7552 488.5396 231.4655 488.4038 232.2159 488.2683 232.9999 488.1268 234.3127 487.8615 235.5344 487.2243 236.6762 486.2103 237.7956 485.1961 238.3583 483.5741 238.3583 481.3512 238.3583 481.3058 238.3583 481.261 238.3583 481.2157 238.3243 479.8534 237.9036 478.6271 237.0969 477.5304 236.1934 476.3801 235.1027 475.5195 233.8183 474.9593 232.5626 474.3933 231.1872 474.1101 229.6928 474.1101 229.5811 474.1101 229.4691 474.1101 229.3574 474.1101 227.454 474.1807 225.7038 474.6348 224.1184 475.4781 222.5673 476.2624 221.584 476.8639 221.1752 477.2942 222.2793 478.7921 223.3837 480.2899 224.4878 481.7877 224.8971 481.3634 225.5105 480.8795 226.3343 480.3372 227.1753 479.7711 228.1414 479.4936 229.2267 479.4936 229.2704 479.4936 229.3138 479.4936 229.3574 479.4936 230.1021 479.4936 230.7725 479.6529 231.3692 479.9775 231.8465 480.2723 232.0852 480.6556 232.0852 481.1156 232.0852 481.1726 232.0852 481.2293 232.0852 481.2863 232.0339 481.7701 231.8066 482.1177 231.4032 482.3243 230.9712 482.4836 230.1758 482.6778 229.0107 482.9083 228.1017 483.1203 227.4653 483.2736 227.1073 483.3856 226.7436 483.4979 226.3343 483.6453 225.8799 483.846 223.323 484.9957 222.0389 487.0003 222.0389 489.8546 222.0389 491.1636 222.4023 492.3782 223.124 493.4985 223.8511 494.6014 224.7945 495.4501 225.9485 496.0344 227.1699 496.671 228.4143 497.0015 229.6928 497.0367 229.8745 497.0367 230.0564 497.0367 230.2381 497.0367 231.1472 497.0367 232.0109 496.9307 232.8182 496.7184 233.6306 496.506 234.3923 496.1874 235.1137 495.7571 236.7448 494.7959 237.6422 494.1057 237.8072 493.7051ZM218.3394 490.3557C213.9639 487.4995 209.5889 484.6439 205.2133 481.7877 205.3837 481.5575 205.7984 481.2746 206.4634 480.9444 207.0088 480.6556 207.7988 480.5082 208.8269 480.5082 208.9732 480.5082 209.1189 480.5082 209.2649 480.5082 209.9066 480.5668 210.6513 480.7675 211.4923 481.1156 212.2027 481.4283 212.8277 481.7758 213.3615 482.171 213.8786 482.5721 214.1399 482.7841 214.1399 482.8076 215.2349 481.0742 216.3297 479.3403 217.4247 477.6069 216.9587 477.2472 216.436 476.8994 215.8563 476.5513 215.1006 476.0796 214.1005 475.596 212.8445 475.1008 211.6457 474.6175 210.3046 474.3578 208.8269 474.3227 208.7833 474.3227 208.7399 474.3227 208.6963 474.3227 206.6394 474.3227 204.7643 474.806 203.0655 475.7729 201.2922 476.7163 199.8887 478.0607 198.8717 479.8003 197.86 481.5045 197.3373 483.427 197.3035 485.5674 197.3035 485.6128 197.3035 485.6576 197.3035 485.7029 197.3035 487.5489 197.7066 489.2944 198.5193 490.9394 199.366 492.5965 200.5364 493.9821 202.0311 495.0848 203.5086 496.158 205.1906 496.8068 207.0828 497.0367 207.7245 497.0837 208.1908 497.1073 208.4805 497.1073 209.7023 497.1073 210.8843 496.8952 212.0264 496.4706 213.5265 495.8456 214.7085 495.1026 215.5723 494.2417 216.396 493.4336 217.044 492.6436 217.5211 491.8771 217.8794 491.2991 218.1518 490.7923 218.3394 490.3557ZM203.3325 485.8506C205.825 487.4683 208.3175 489.0858 210.8103 490.7038 210.5887 490.8274 210.299 490.9751 209.9466 491.1341 209.5432 491.2934 209.0146 491.3759 208.3442 491.3759 206.9461 491.3759 205.7647 490.8214 204.7986 489.7191 203.8212 488.5866 203.3325 487.3014 203.3325 485.8506ZM178.6201 505.5928C180.9235 500.6866 183.2267 495.7807 185.5298 490.8745 186.9279 495.417 188.3254 499.9592 189.7234 504.5017 192.0549 504.2305 194.3867 503.9595 196.7185 503.6882 193.2783 493.6422 189.8391 483.5959 186.3992 473.55 183.7344 479.1753 181.0689 484.8009 178.4044 490.4263 175.7013 484.8009 172.9984 479.1753 170.2953 473.55 166.9995 483.5976 163.7039 493.6462 160.4081 503.6939 162.7832 503.987 165.1584 504.2801 167.5338 504.5729 168.8542 499.9615 170.174 495.3504 171.4946 490.739 173.8698 495.6902 176.2449 500.6412 178.6201 505.5928ZM164.9679 562.1193C150.6237 565.8352 154.9939 576.6111 148.6278 583.8778 164.2473 583.7627 168.7861 577.3065 168.9111 568.3249 165.7772 571.3622 162.6418 574.3998 159.5075 577.4374 161.3273 572.3317 168.5483 567.1565 164.9679 562.1193ZM177.9188 562.6046C181.6997 568.9154 182.2467 571.8994 180.5644 576.5406 175.5473 572.4258 176.2999 564.7051 172.5327 564.7365 167.5457 573.9956 168.5911 581.4128 177.9029 586.3056 184.4323 579.3812 188.424 574.2105 185.0017 569.5982 190.8972 572.8552 198.7024 572.881 207.8368 570.6587 206.4183 563.9692 202.3189 560.3927 196.3534 558.9794 204.2402 554.991 209.4267 550.1217 207.3631 542.8865 194.9695 547.6068 182.4423 541.2419 175.8614 557.742 184.7169 557.4487 188.8441 550.5534 198.9663 550.2042 195.4451 553.3492 189.7605 555.5409 183.0365 558.932 189.6364 559.7878 193.5116 562.2727 197.8047 564.5064 188.4081 562.7129 181.0134 561.7582 177.9188 562.6046ZM294.8632 596.0409C290.1858 592.8004 294.7215 587.0597 301.566 588.9671 304.7953 591.2101 308.0248 593.4526 311.2543 595.6954 315.6871 600.4536 312.3592 600.279 308.0659 599.4916 303.6651 598.341 299.2643 597.1912 294.8632 596.0409ZM165.3038 556.9353C168.0633 560.7765 172.563 560.7694 172.8706 554.8567 173.1643 549.2132 171.4414 549.0462 173.8551 542.317 177.0477 533.4205 183.3148 529.5144 191.842 527.294 214.1949 521.4739 240.1384 530.4623 254.9716 547.4143 270.0043 562.2131 268.9631 573.1407 254.7944 580.9059 236.9687 590.6769 225.0147 592.5189 205.5949 606.0515 201.4744 608.9221 197.9705 611.9833 195.2671 615.2854 179.5099 634.5363 197.0538 652.0277 209.2031 661.7203 217.1877 668.09 226.7354 672.7453 238.6208 677.2842 249.1078 681.2895 261.4158 685.4545 276.0749 687.0677 297.94 689.6123 309.8092 682.2819 309.1569 666.1403 308.7933 657.1378 305.8495 651.3202 302.4068 643.4385 301.2157 640.7121 300.0322 637.9713 298.8011 635.3135 294.787 626.6429 287.6545 626.7563 291.4883 641.7638 292.7727 645.3734 294.0571 648.9831 295.3412 652.5927 298.669 661.9484 305.1856 673.1731 291.9056 677.6181 277.2643 682.5175 252.254 673.3131 239.1925 668.1189 219.7032 660.3695 207.8725 651.3693 202.411 642.424 194.2342 629.043 202.7353 617.4048 220.3183 607.2466 236.1277 598.1128 245.91 595.3629 260.6063 587.0112 279.5984 576.2177 281.3031 561.4251 264.0478 542.2462 248.0845 523.0225 204.8641 507.3001 179.7616 521.625 172.2821 525.8923 166.2188 532.4179 164.1135 543.5076 163.2637 547.9894 162.5117 553.049 165.3038 556.9353ZM285.6594 570.909C289.8918 580.0263 301.7752 579.0277 292.3345 562.0462 289.1378 556.1212 285.942 550.1959 282.7457 544.2704 273.9994 519.296 291.7375 524.7006 303.8905 539.2366 317.0792 568.1435 330.918 596.8871 349.2933 624.496 349.2113 626.9343 349.1294 629.3727 349.0478 631.8111 351.8521 635.8745 354.8271 640.2107 357.6322 644.2739 365.25 650.2175 372.9365 650.8573 371.4129 644.3167 356.4561 616.7557 341.4991 589.1939 326.5427 561.6323 322.4786 554.1619 318.4149 546.6912 314.3517 539.2208 312.518 525.3245 319.0096 526.9898 328.4745 534.2136 338.9814 541.3859 339.7734 536.9579 333.4975 529.5294 317.7598 520.0203 303.0758 512.2196 303.9219 529.6099 287.4212 516.0994 266.4238 513.6392 272.5815 540.0281 276.9409 550.3218 281.3 560.6152 285.6594 570.909" fill="#ffffff" fill-rule="evenodd"/>
<path transform="matrix(0,.92286,.92197,0,0,841.8898)" stroke-width="4.1102" stroke-linecap="round" stroke-linejoin="round" fill="none" stroke="#ffffff" d="M-496.7461 184.4892V433.2495"/>
<path transform="matrix(1,0,0,-1,0,841.8898)" d="M181.7705 445.2369V423.9652H176.1001V445.2369H168.9043V450.3283H188.9663V445.2369ZM211.8631 437.2974C211.8631 439.6482 211.1366 441.6537 209.6824 443.3136 208.2288 444.9728 206.4421 445.8027 204.3221 445.8027 202.2018 445.8027 200.4151 444.9728 198.9607 443.3136 197.5073 441.6537 196.7803 439.6482 196.7803 437.2974 196.7803 434.9466 197.5073 432.9482 198.9607 431.301 200.4151 429.654 202.2018 428.8303 204.3221 428.8303 206.4421 428.8303 208.2288 429.654 209.6824 431.301 211.1366 432.9482 211.8631 434.9466 211.8631 437.2974ZM213.7901 427.6046C211.2214 425.0024 208.0593 423.701 204.3034 423.701 200.5478 423.701 197.3863 425.0024 194.8178 427.6046 192.2494 430.2068 190.9655 433.4445 190.9655 437.3164 190.9655 441.1891 192.2494 444.426 194.8178 447.0282 197.3863 449.6304 200.5478 450.9317 204.3034 450.9317 208.0593 450.9317 211.2214 449.6304 213.7901 447.0282 216.3586 444.426 217.6424 441.1891 217.6424 437.3164 217.6424 433.4445 216.3586 430.2068 213.7901 427.6046ZM231.4162 450.3283C235.3164 450.3283 238.1579 449.5431 239.9386 447.9712 241.7196 446.3994 242.6097 443.9854 242.6097 440.7296 242.6097 437.4737 241.6952 435.0917 239.8657 433.5829 238.0368 432.074 235.2441 431.32 231.4885 431.32H228.1088V423.9652H222.4395V450.3283ZM231.9242 436.4113C233.8143 436.4113 235.099 436.8078 235.7782 437.5996 236.4559 438.3916 236.795 439.5481 236.795 441.0689 236.795 442.5908 236.3525 443.6719 235.4683 444.3129 234.5842 444.9538 233.2089 445.2749 231.3439 445.2749H228.1088V436.4113ZM271.4681 426.2281C269.4317 424.518 267.0758 423.6639 264.3987 423.6639 261.7211 423.6639 259.5229 424.3737 257.8025 425.7944 256.0819 427.2151 255.2213 429.1574 255.2213 431.6216 255.2213 434.3868 257.0023 436.8387 260.5649 438.9763 259.7647 439.9815 259.1838 440.8676 258.8202 441.6347 258.4565 442.4014 258.2753 443.3006 258.2753 444.3318 258.2753 446.4686 259.02 448.1033 260.5096 449.2346 262.0001 450.3662 263.7632 450.9317 265.7976 450.9317 267.8332 450.9317 269.572 450.3852 271.0137 449.2908 272.4545 448.1974 273.1759 446.6699 273.1759 444.7091 273.1759 442.2444 271.4437 439.9566 267.9792 437.845 269.3353 436.0847 270.3538 434.8145 271.0312 434.0353 271.6376 435.1918 272.0976 436.4113 272.4126 437.694L276.6654 434.526C276.1078 432.9411 275.4295 431.4705 274.6293 430.1127L278.2281 426.4172 274.6293 422.8719ZM260.6372 431.4331C260.6372 430.5532 260.9881 429.8233 261.6917 429.2456 262.3938 428.667 263.3023 428.3776 264.4174 428.3776 265.5315 428.3776 266.7305 428.9312 268.0143 430.0376 266.2461 431.9739 264.7196 433.734 263.4358 435.318 261.57 434.1104 260.6372 432.8158 260.6372 431.4331ZM265.7976 446.4814C265.2653 446.4814 264.7868 446.2863 264.3619 445.8969 263.9387 445.5074 263.7264 444.9787 263.7264 444.3129 263.7264 443.6461 264.2117 442.6849 265.1805 441.4275 266.9975 442.4335 267.906 443.3757 267.906 444.2559 267.906 444.9855 267.6878 445.5383 267.2521 445.9158 266.8153 446.2931 266.3308 446.4814 265.7976 446.4814ZM291.6751 450.3283H297.3447V439.5042L306.9394 450.3283H313.954L303.8502 438.6742C304.7227 437.4176 306.3339 435.0728 308.6841 431.6406 311.0343 428.2084 312.791 425.6501 313.954 423.9652H307.3391L299.8888 434.3749 297.3447 431.4331V423.9652H291.6751ZM324.2035 430.7726C325.1483 429.5531 326.4202 428.9434 328.0198 428.9434 329.6186 428.9434 330.8848 429.5531 331.8177 430.7726 332.7506 431.9921 333.2174 433.658 333.2174 435.7704V450.3283H338.8867V435.5813C338.8867 431.7596 337.8682 428.8241 335.8338 426.7746 333.7985 424.726 331.1938 423.701 328.0198 423.701 324.8459 423.701 322.2346 424.7323 320.1877 426.7936 318.1405 428.8561 317.1169 431.7849 317.1169 435.5813V450.3283H322.7854V435.7704C322.7854 433.658 323.2582 431.9921 324.2035 430.7726ZM365.3813 441.5786C365.3813 437.3544 363.7701 434.626 360.5474 433.3946L366.98 423.9652H360.0026L354.3693 432.3756H350.4438V423.9652H344.7746V450.3283H354.4053C358.3551 450.3283 361.1713 449.6372 362.8548 448.2536 364.5391 446.8708 365.3813 444.6462 365.3813 441.5786ZM354.5875 437.4675C356.5256 437.4675 357.8454 437.794 358.5492 438.4477 359.2511 439.1016 359.6029 440.1388 359.6029 441.5596 359.6029 442.9803 359.2392 443.9546 358.5121 444.4821 357.785 445.0107 356.5137 445.2749 354.6967 445.2749H350.4438V437.4675ZM381.4458 445.2369V423.9652H375.7757V445.2369H368.5796V450.3283H388.6424V445.2369ZM392.7855 450.3283H398.4548V423.9652H392.7855Z" fill="#ffffff"/>
<path transform="matrix(0,.92286,.92197,0,0,841.8898)" stroke-width="4.1102" stroke-linecap="round" stroke-linejoin="round" fill="none" stroke="#ffffff" d="M-447.7034 184.4892V433.2495"/>
</g>
</svg>
